<svg width="48" height="48" xmlns="http://www.w3.org/2000/svg">

 <g>
  <title>background</title>
  <rect fill="none" id="canvas_background" height="402" width="582" y="-1" x="-1"/>
 </g>
 <g>
  <title>Layer 1</title>
  <path id="svg_7" fill="#000" opacity="0.1" fill-rule="nonzero" d="m24.24,13.01c-0.892,0.016 -1.777,0.05 -2.359,0.137c-2.607,0.399 -4.694,1.315 -6.04,2.647c-0.737,0.722 -1.174,1.499 -1.462,2.509c-0.158,0.61 -0.212,2.01 -0.047,2.544c0.548,1.882 1.846,3.328 4.293,4.778c1.039,0.615 1.84,1.019 4.151,2.062c2.771,1.246 3.616,1.749 4.01,2.372c0.154,0.253 0.213,0.383 0.189,0.687c-0.041,0.482 -0.283,0.722 -0.849,0.928c-0.377,0.133 -0.512,0.176 -1.226,0.172c-1.309,-0.009 -2.46,-0.254 -4.057,-0.825c-1.126,-0.395 -2.241,-0.941 -3.16,-1.547c-0.925,-0.606 -1,-0.628 -1.274,-0.481c-0.207,0.112 -1.716,1.457 -2.83,2.544c-0.725,0.709 -0.737,0.851 -0.236,1.341c0.495,0.489 1.881,1.516 2.642,1.959c0.826,0.485 1.38,0.757 2.311,1.1c1.562,0.58 2.873,0.821 5.33,1.031c0.56,0.047 2.553,0.052 3.255,0c3.845,-0.309 6.982,-1.564 8.632,-3.403c0.59,-0.653 0.949,-1.212 1.226,-1.994c0.272,-0.76 0.342,-2.255 0.142,-3.162c-0.331,-1.47 -1.215,-2.797 -2.642,-3.918c-1.432,-1.122 -2.883,-1.869 -6.368,-3.265c-2.435,-0.971 -3.35,-1.487 -3.585,-2.028c-0.13,-0.288 -0.053,-0.803 0.142,-0.997c0.383,-0.387 1.12,-0.528 2.076,-0.412c1.781,0.219 4.067,1.036 6.085,2.165c0.389,0.214 0.766,0.395 0.849,0.412c0.325,0.086 0.525,-0.043 1.84,-1.547c1.615,-1.852 1.598,-1.775 0.708,-2.406c-2.648,-1.9 -5.719,-3 -9.246,-3.334c-0.702,-0.064 -1.608,-0.084 -2.5,-0.069z"/>
  <path id="svg_8" fill="#f9f9f9" fill-rule="nonzero" d="m23.24,12.01c-0.892,0.016 -1.777,0.05 -2.359,0.137c-2.607,0.399 -4.694,1.315 -6.04,2.647c-0.737,0.722 -1.174,1.499 -1.462,2.509c-0.158,0.61 -0.212,2.01 -0.047,2.544c0.548,1.882 1.846,3.328 4.293,4.778c1.039,0.615 1.84,1.019 4.151,2.062c2.771,1.246 3.616,1.749 4.01,2.372c0.154,0.253 0.213,0.383 0.189,0.687c-0.041,0.482 -0.283,0.722 -0.849,0.928c-0.377,0.133 -0.512,0.176 -1.226,0.172c-1.309,-0.009 -2.46,-0.254 -4.057,-0.825c-1.126,-0.395 -2.241,-0.941 -3.16,-1.547c-0.925,-0.606 -1,-0.628 -1.274,-0.481c-0.207,0.112 -1.716,1.457 -2.83,2.544c-0.725,0.709 -0.737,0.851 -0.236,1.341c0.495,0.489 1.881,1.516 2.642,1.959c0.826,0.485 1.38,0.757 2.311,1.1c1.562,0.58 2.873,0.821 5.33,1.031c0.56,0.047 2.553,0.052 3.255,0c3.845,-0.309 6.982,-1.564 8.632,-3.403c0.59,-0.653 0.949,-1.212 1.226,-1.994c0.272,-0.76 0.342,-2.255 0.142,-3.162c-0.331,-1.47 -1.215,-2.797 -2.642,-3.918c-1.432,-1.122 -2.883,-1.869 -6.368,-3.265c-2.435,-0.971 -3.35,-1.487 -3.585,-2.028c-0.13,-0.288 -0.053,-0.803 0.142,-0.997c0.383,-0.387 1.12,-0.528 2.076,-0.412c1.781,0.219 4.067,1.036 6.085,2.165c0.389,0.214 0.766,0.395 0.849,0.412c0.325,0.086 0.525,-0.043 1.84,-1.547c1.615,-1.852 1.598,-1.775 0.708,-2.406c-2.648,-1.9 -5.719,-3 -9.246,-3.334c-0.702,-0.064 -1.608,-0.084 -2.5,-0.069z"/>
 </g>
</svg>